<svg width="15" height="14" viewBox="0 0 15 14" fill="none" xmlns="http://www.w3.org/2000/svg">
<path d="M12.843 5.77598H4.29201L7.60901 2.60298C7.83805 2.35808 7.96547 2.0353 7.96547 1.69998C7.96547 1.36467 7.83805 1.04189 7.60901 0.796984C7.49844 0.678844 7.3648 0.584664 7.21635 0.520278C7.0679 0.455891 6.90782 0.422668 6.74601 0.422668C6.5842 0.422668 6.42412 0.455891 6.27567 0.520278C6.12722 0.584664 5.99358 0.678844 5.88301 0.796984L0.360012 6.15198C0.241551 6.26933 0.148468 6.40978 0.0865404 6.56459C0.0246126 6.71941 -0.00483948 6.88531 1.16365e-05 7.05198V7.06798C-0.00483948 7.23466 0.0246126 7.40055 0.0865404 7.55537C0.148468 7.71019 0.241551 7.85063 0.360012 7.96798L5.87501 13.313C5.98558 13.4311 6.11922 13.5253 6.26767 13.5897C6.41612 13.6541 6.5762 13.6873 6.73801 13.6873C6.89982 13.6873 7.05991 13.6541 7.20835 13.5897C7.3568 13.5253 7.49044 13.4311 7.60101 13.313C7.83005 13.0681 7.95747 12.7453 7.95747 12.41C7.95747 12.0747 7.83005 11.7519 7.60101 11.507L4.28801 8.33398H12.839C13.0033 8.33035 13.1653 8.29438 13.3157 8.22812C13.4661 8.16187 13.6019 8.06664 13.7155 7.94787C13.8291 7.82909 13.9181 7.6891 13.9776 7.5359C14.037 7.3827 14.0657 7.21928 14.062 7.05498C14.0675 6.89058 14.0401 6.72673 13.9815 6.57301C13.923 6.4193 13.8344 6.2788 13.7209 6.15972C13.6074 6.04065 13.4713 5.94538 13.3206 5.87949C13.1698 5.81361 13.0075 5.77842 12.843 5.77598Z" fill="white"/>
</svg>
