<svg width="21" height="21" viewBox="0 0 21 21" fill="none" xmlns="http://www.w3.org/2000/svg">
<path d="M19.476 8.298H7.621V7.451H11.008C11.1192 7.451 11.2294 7.42909 11.3321 7.38653C11.4349 7.34396 11.5283 7.28157 11.6069 7.20292C11.6856 7.12427 11.748 7.0309 11.7905 6.92813C11.8331 6.82537 11.855 6.71523 11.855 6.604V1.524C11.855 1.29936 11.7658 1.08393 11.6069 0.925083C11.4481 0.766239 11.2326 0.677002 11.008 0.677002L2.54 0.677002C2.31536 0.677002 2.09992 0.766239 1.94108 0.925083C1.78224 1.08393 1.693 1.29936 1.693 1.524V6.604C1.693 6.82864 1.78224 7.04408 1.94108 7.20292C2.09992 7.36176 2.31536 7.451 2.54 7.451H5.927V8.298H0.847C0.73577 8.298 0.62563 8.31991 0.522867 8.36248C0.420104 8.40504 0.326732 8.46743 0.248081 8.54608C0.169429 8.62473 0.10704 8.71811 0.064474 8.82087C0.0219083 8.92363 0 9.03377 0 9.145L0 21H1.694V12.532H11.855V18.459C11.855 18.6836 11.9442 18.8991 12.1031 19.0579C12.2619 19.2168 12.4774 19.306 12.702 19.306H18.629V21H20.323V9.145C20.323 8.92036 20.2338 8.70493 20.0749 8.54608C19.9161 8.38724 19.7006 8.298 19.476 8.298ZM3.387 2.371H10.161V5.758H3.387V2.371ZM1.694 9.992H18.629V10.839H1.694V9.992ZM18.63 12.532V14.226H13.548V12.532H18.63ZM13.549 17.613V15.919H18.63V17.613H13.549Z" fill="white"/>
</svg>
