<svg width="49" height="49" viewBox="0 0 49 49" fill="none" xmlns="http://www.w3.org/2000/svg">
<path d="M41.4 7.31699H35.9V16.917H41.4V7.31699Z" fill="#F05540"/>
<path d="M43.5 2.41699H33.8V7.61699H43.5V2.41699Z" fill="#F3705A"/>
<path d="M4.20001 26.317V48.417H43.4V26.317L23.8 6.71701C16.2 14.417 11.9 18.717 4.20001 26.317Z" fill="#FFD15C"/>
<path d="M43.5 26.317L23.9 6.71701C20 10.517 17 13.517 14 16.517L4.20001 26.317V30.817L23.8 11.217L43.4 30.817V31.417V26.317H43.5Z" fill="#F7B64C"/>
<path d="M20.3 48.417H8.5V36.817C8.50291 35.2531 9.12545 33.7541 10.2313 32.6483C11.3371 31.5424 12.8361 30.9199 14.4 30.917C15.9639 30.9199 17.4629 31.5424 18.5687 32.6483C19.6746 33.7541 20.2971 35.2531 20.3 36.817V48.417Z" fill="#415A6B"/>
<path d="M39.2 30.917H23.8V44.417H39.2V30.917Z" fill="#344A5E"/>
<path d="M30.7 32.517H25.4V42.817H30.7V32.517Z" fill="#8AD7F8"/>
<path d="M37.6 32.517H32.3V42.817H37.6V32.517Z" fill="#8AD7F8"/>
<path d="M47.1 22.217L26.2 1.317C25.5934 0.739139 24.7878 0.416809 23.95 0.416809C23.1122 0.416809 22.3066 0.739139 21.7 1.317L0.900007 22.217C0.322147 22.8236 -0.000183105 23.6292 -0.000183105 24.467C-0.000183105 25.3048 0.322147 26.1104 0.900007 26.717C1.5067 27.2946 2.31231 27.6168 3.15001 27.6168C3.9877 27.6168 4.79331 27.2946 5.40001 26.717L24 8.117L42.6 26.717C43.1975 27.3103 44.0057 27.6426 44.8477 27.6411C45.6897 27.6396 46.4968 27.3045 47.0921 26.7091C47.6875 26.1138 48.0227 25.3067 48.0241 24.4647C48.0256 23.6227 47.6933 22.8145 47.1 22.217Z" fill="#F3705A"/>
</svg>
