<svg width="44" height="44" viewBox="0 0 44 44" fill="none" xmlns="http://www.w3.org/2000/svg">
<g filter="url(#filter0_d_1_1299)">
<path d="M22 35C30.8366 35 38 27.8366 38 19C38 10.1634 30.8366 3 22 3C13.1634 3 6 10.1634 6 19C6 27.8366 13.1634 35 22 35Z" fill="white"/>
</g>
<path d="M26.83 11.7C28.3418 12.7794 29.4716 14.3112 30.0565 16.0743C30.6414 17.8373 30.6512 19.7406 30.0845 21.5097C29.5178 23.2787 28.4038 24.8219 26.9032 25.9169C25.4027 27.0119 23.5931 27.6019 21.7355 27.6019C19.8779 27.6019 18.0684 27.0119 16.5678 25.9169C15.0672 24.8219 13.9532 23.2787 13.3865 21.5097C12.8198 19.7406 12.8296 17.8373 13.4145 16.0743C13.9994 14.3112 15.1292 12.7794 16.641 11.7C16.738 11.6303 16.8487 11.5818 16.9657 11.5577C17.0827 11.5336 17.2035 11.5344 17.3202 11.5601C17.4369 11.5857 17.5468 11.6357 17.643 11.7066C17.7391 11.7776 17.8192 11.868 17.878 11.972L18.437 12.965C18.5392 13.1452 18.572 13.3565 18.529 13.5592C18.4861 13.7618 18.3705 13.9418 18.204 14.065C17.1996 14.8085 16.4553 15.8499 16.0771 17.041C15.6988 18.2321 15.7059 19.5121 16.0974 20.6989C16.4889 21.8856 17.2447 22.9187 18.2574 23.651C19.27 24.3833 20.4878 24.7775 21.7375 24.7775C22.9872 24.7775 24.205 24.3833 25.2177 23.651C26.2303 22.9187 26.9861 21.8856 27.3776 20.6989C27.7691 19.5121 27.7762 18.2321 27.398 17.041C27.0197 15.8499 26.2754 14.8085 25.271 14.065C25.1062 13.9423 24.9918 13.7636 24.9494 13.5625C24.9071 13.3614 24.9397 13.1518 25.041 12.973L25.6 11.98C25.6581 11.8763 25.7375 11.7859 25.8328 11.7149C25.9282 11.6438 26.0374 11.5937 26.1534 11.5676C26.2695 11.5416 26.3897 11.5403 26.5062 11.5638C26.6228 11.5873 26.7331 11.6351 26.83 11.704V11.7ZM23.154 19.121V10.636C23.1544 10.5247 23.1328 10.4145 23.0906 10.3116C23.0483 10.2086 22.9861 10.1151 22.9076 10.0362C22.8291 9.95735 22.7359 9.89474 22.6331 9.85198C22.5304 9.80922 22.4203 9.78714 22.309 9.78701H21.174C21.0624 9.78661 20.9518 9.8083 20.8486 9.85083C20.7455 9.89335 20.6517 9.95587 20.5728 10.0348C20.4939 10.1137 20.4314 10.2075 20.3888 10.3106C20.3463 10.4138 20.3246 10.5244 20.325 10.636V19.121C20.3246 19.2326 20.3463 19.3432 20.3888 19.4464C20.4314 19.5496 20.4939 19.6433 20.5728 19.7222C20.6517 19.8011 20.7455 19.8637 20.8486 19.9062C20.9518 19.9487 21.0624 19.9704 21.174 19.97H22.309C22.4203 19.9699 22.5304 19.9478 22.6331 19.905C22.7359 19.8623 22.8291 19.7997 22.9076 19.7208C22.9861 19.6419 23.0483 19.5484 23.0906 19.4454C23.1328 19.3425 23.1544 19.2323 23.154 19.121Z" fill="#FF9696"/>
<defs>
<filter id="filter0_d_1_1299" x="0" y="0" width="44" height="44" filterUnits="userSpaceOnUse" color-interpolation-filters="sRGB">
<feFlood flood-opacity="0" result="BackgroundImageFix"/>
<feColorMatrix in="SourceAlpha" type="matrix" values="0 0 0 0 0 0 0 0 0 0 0 0 0 0 0 0 0 0 127 0" result="hardAlpha"/>
<feOffset dy="3"/>
<feGaussianBlur stdDeviation="3"/>
<feColorMatrix type="matrix" values="0 0 0 0 0 0 0 0 0 0.176471 0 0 0 0 0.403922 0 0 0 0.098 0"/>
<feBlend mode="normal" in2="BackgroundImageFix" result="effect1_dropShadow_1_1299"/>
<feBlend mode="normal" in="SourceGraphic" in2="effect1_dropShadow_1_1299" result="shape"/>
</filter>
</defs>
</svg>
