<svg width="18" height="29" viewBox="0 0 18 29" fill="none" xmlns="http://www.w3.org/2000/svg">
<path d="M17.287 14.315C17.287 12.8173 16.8979 11.3454 16.1578 10.0434C15.4177 8.74142 14.352 7.65406 13.0652 6.88789C11.7783 6.12172 10.3145 5.70303 8.81719 5.67285C7.31985 5.64268 5.84037 6.00205 4.52373 6.71575C3.20708 7.42945 2.09845 8.47299 1.30649 9.7441C0.514526 11.0152 0.0664107 12.4703 0.00604853 13.9667C-0.0543136 15.4631 0.27515 16.9496 0.962157 18.2803C1.64916 19.6111 2.67014 20.7405 3.92502 21.558V24.281C3.92502 25.5323 4.42209 26.7323 5.30689 27.6171C6.19169 28.5019 7.39174 28.999 8.64303 28.999C9.89432 28.999 11.0944 28.5019 11.9792 27.6171C12.864 26.7323 13.361 25.5323 13.361 24.281V21.558C14.5646 20.7708 15.5535 19.6967 16.2388 18.4323C16.9241 17.168 17.2843 15.7531 17.287 14.315ZM11.695 24.281C11.6664 25.0708 11.3326 25.8187 10.7637 26.3673C10.1948 26.9159 9.43534 27.2225 8.64503 27.2225C7.85471 27.2225 7.09521 26.9159 6.52635 26.3673C5.95749 25.8187 5.62363 25.0708 5.59502 24.281V23.581H11.695V24.281ZM12.113 20.369C11.986 20.4419 11.8805 20.5471 11.8071 20.6739C11.7337 20.8006 11.6951 20.9445 11.695 21.091V21.917H9.47603V17.609C10.0182 17.4329 10.4908 17.0897 10.826 16.6286C11.1612 16.1674 11.3418 15.6121 11.342 15.042C11.342 14.8211 11.2543 14.6092 11.098 14.4529C10.9418 14.2967 10.7299 14.209 10.509 14.209C10.2881 14.209 10.0762 14.2967 9.92 14.4529C9.76379 14.6092 9.67602 14.8211 9.67602 15.042C9.67602 15.3159 9.56719 15.5787 9.37346 15.7724C9.17974 15.9661 8.917 16.075 8.64303 16.075C8.36906 16.075 8.10631 15.9661 7.91258 15.7724C7.71886 15.5787 7.61002 15.3159 7.61002 15.042C7.61002 14.8211 7.52226 14.6092 7.36604 14.4529C7.20982 14.2967 6.99795 14.209 6.77702 14.209C6.5561 14.209 6.34422 14.2967 6.188 14.4529C6.03178 14.6092 5.94402 14.8211 5.94402 15.042C5.94423 15.6121 6.12487 16.1674 6.46007 16.6286C6.79527 17.0897 7.26782 17.4329 7.81003 17.609V21.917H5.59202V21.09C5.59198 20.9435 5.55331 20.7996 5.47993 20.6729C5.40654 20.5461 5.30102 20.4409 5.17403 20.368C3.83969 19.6032 2.7954 18.419 2.2035 16.9995C1.61159 15.58 1.50524 14.0047 1.90096 12.5185C2.29668 11.0323 3.17232 9.71845 4.39174 8.78124C5.61116 7.84402 7.10605 7.33592 8.64403 7.33592C10.182 7.33592 11.6769 7.84402 12.8963 8.78124C14.1157 9.71845 14.9914 11.0323 15.3871 12.5185C15.7828 14.0047 15.6764 15.58 15.0845 16.9995C14.4926 18.419 13.4484 19.6032 12.114 20.368L12.113 20.369Z" fill="#CECECE"/>
<path d="M8.64303 0.819977C8.4221 0.819977 8.21023 0.907739 8.05401 1.06396C7.89779 1.22017 7.81002 1.43205 7.81002 1.65298V3.11998C7.81002 3.3409 7.89779 3.55278 8.05401 3.709C8.21023 3.86521 8.4221 3.95298 8.64303 3.95298C8.86395 3.95298 9.07583 3.86521 9.23205 3.709C9.38827 3.55278 9.47602 3.3409 9.47602 3.11998V1.65298C9.47602 1.43205 9.38827 1.22017 9.23205 1.06396C9.07583 0.907739 8.86395 0.819977 8.64303 0.819977Z" fill="#CECECE"/>
<path d="M6.30002 3.32897L5.78303 1.96097C5.70492 1.75424 5.54789 1.58699 5.34647 1.49604C5.14506 1.40508 4.91576 1.39787 4.70902 1.47597C4.50228 1.55408 4.33504 1.71111 4.24409 1.91253C4.15313 2.11394 4.14591 2.34324 4.22402 2.54997L4.74102 3.91797C4.81912 4.12471 4.97616 4.29195 5.17757 4.3829C5.37899 4.47386 5.60829 4.48108 5.81502 4.40297C6.02176 4.32487 6.189 4.16783 6.27996 3.96642C6.37091 3.765 6.37813 3.53571 6.30002 3.32897Z" fill="#CECECE"/>
<path d="M12.578 1.47598C12.4756 1.43726 12.3666 1.4191 12.2573 1.42253C12.1479 1.42595 12.0403 1.4509 11.9405 1.49594C11.8408 1.54098 11.7509 1.60523 11.676 1.68503C11.6011 1.76482 11.5426 1.85859 11.504 1.96098L10.987 3.32898C10.9483 3.43134 10.9302 3.54032 10.9337 3.6497C10.9371 3.75907 10.962 3.86669 11.0071 3.96642C11.0521 4.06615 11.1164 4.15604 11.1961 4.23094C11.2759 4.30584 11.3697 4.3643 11.472 4.40298C11.5744 4.44165 11.6834 4.45978 11.7927 4.45634C11.9021 4.4529 12.0097 4.42795 12.1095 4.38291C12.2092 4.33787 12.2991 4.27363 12.374 4.19386C12.4489 4.11409 12.5073 4.02034 12.546 3.91798L13.063 2.54998C13.1017 2.44761 13.1199 2.33863 13.1165 2.22924C13.113 2.11986 13.0881 2.01222 13.0431 1.91248C12.998 1.81274 12.9338 1.72286 12.854 1.64796C12.7742 1.57306 12.6804 1.51462 12.578 1.47598Z" fill="#CECECE"/>
</svg>
